<?xml version="1.0" encoding="utf-8"?>
<!-- Generator: Adobe Illustrator 24.0.0, SVG Export Plug-In . SVG Version: 6.00 Build 0)  -->
<svg version="1.1" id="Layer_10" xmlns="http://www.w3.org/2000/svg" xmlns:xlink="http://www.w3.org/1999/xlink" x="0px" y="0px"
	 width="102.48px" height="102.48px" viewBox="0 0 102.48 102.48" style="enable-background:new 0 0 102.48 102.48;"
	 xml:space="preserve">
<style type="text/css">
	.st0{fill-rule:evenodd;clip-rule:evenodd;fill:#6699FF;}
	.st1{fill-rule:evenodd;clip-rule:evenodd;fill:#66BDFF;}
	.st2{fill-rule:evenodd;clip-rule:evenodd;fill:#426EC7;}
	.st3{fill-rule:evenodd;clip-rule:evenodd;fill:#2F83C4;}
	.st4{fill-rule:evenodd;clip-rule:evenodd;fill:#DF99FF;}
</style>
<g>
	<path class="st0" d="M51.24,102.48c28.24,0,51.24-23.03,51.24-51.24C102.48,23,79.49,0,51.24,0C23.03,0,0,22.99,0,51.24
		C0,79.45,23.03,102.48,51.24,102.48L51.24,102.48z"/>
	<path class="st1" d="M86.45,14c1.93,1.82,3.74,3.82,5.36,5.92c-3.89,0.07-7.8,0.1-11.8,0.1c-25.02,0-48.09-1.26-66.57-3.36
		c0.7-0.81,1.43-1.54,2.21-2.28c10.01,0.46,20.65,0.66,31.64,0.66C61.07,15.05,74.27,14.7,86.45,14L86.45,14z M98.14,30.52
		c0.32,0.73,0.63,1.47,0.91,2.21c-13.23,14.49-42.32,30.2-75.36,39.51c-5.88,1.65-11.62,3.01-17.11,4.13
		c-2.27-4.09-4.02-8.51-5.15-13.2c11.24-0.77,24.29-3.08,38.29-7.03C62.34,49.8,83.06,40.46,98.14,30.52L98.14,30.52z M100.87,64.09
		c-0.14,0.52-0.28,1.08-0.46,1.61c-10.6,4.86-22.4,9.24-34.76,12.71c-20.4,5.77-38.78,8.05-52.46,7.14
		c-2.03-2.28-3.89-4.76-5.53-7.35c13.44,4.55,37.76,3.26,66.04-4.72C83.16,70.8,92.33,67.62,100.87,64.09L100.87,64.09z
		 M83.97,90.68c-4.45,3.67-9.52,6.61-15.02,8.65c-13.58-0.07-26.53-0.49-38.43-1.23c-5.77-2.55-10.96-6.13-15.37-10.5
		c18.1,1.93,40.29,3.08,64.22,3.08C80.92,90.68,82.43,90.68,83.97,90.68L83.97,90.68z"/>
	<path class="st2" d="M88.16,86.77c-9.31,9.7-22.4,15.71-36.92,15.71C22.96,102.48,0,79.52,0,51.24C0,22.92,22.96,0,51.24,0
		l-16.8,11.23l2.76,4.8l-3.85,9.73l3.22,12.67l6.33,3.67l0.77,7.11l-5.71,7.42l-10.95-1.85l-0.45,0.45l-6.97,12.5l5.11,9.13
		L25.15,77l13.76,0.63l9.1-5.74l3.54,4.2l4.34,0.77l-1.08,4.45c0.42,0,0.6,0,0.6,0l10.5,0.95c2.03-1.02,0.63-0.32,0.77-0.46
		l6.65-7.42l-9.27-5.71l2.03-4.79l9.24-3.08l4.17,7.25l-2.63,6.47l3.11,4.16l-8.64,7.28l-3.39-1.09l-1.54,2.45l6.02,3.71l9.7-5.25
		L88.16,86.77z M83.93,59.04l-4.55-0.84l-0.07-3.01l3.78-1.09l0.24-0.14l2.45,1.92l-0.31,1.15L83.93,59.04z M30.07,74.73l-0.84-0.77
		l0.91-1.85l0.95,0.7L30.07,74.73z M42,62.65l-2-1.09l-1.08,0.91v1.71l1.99,0.77l1.99-2.48L42,62.65z M60.51,13.41l-1.23-2.17
		l0.91-1.05l1.71,0.28v2.63L60.51,13.41z M49.56,28.24l-1.99-2.48l1.36-0.77l2.03,0.63l0.28,1.99L49.56,28.24z M61.28,34.72
		l-9.55,0.32l-2.03,5.21l3.89,3.4l5.07-3.22l-0.77-2.94l2.77-0.63L61.28,34.72z M27.02,15.89l-4.8,1.22l-1.68,6.02l6.61,3.08
		l3.12-4.93L27.02,15.89z M17.46,47.04l-0.49,1.57l1.57,1.23l0.77-2.17L17.46,47.04z M19.15,53.86l-5.25-1.4l-2.45,4.48l4.3,3.08
		l6.34-5.25L19.15,53.86z M29.65,41.05l3.08-0.32l-0.14,1.99h-2.94L29.65,41.05L29.65,41.05z M22.22,31.92l-3.39-0.14v2.31
		l3.71,1.08L22.22,31.92z"/>
	<path class="st3" d="M83.97,90.68c-4.45,3.67-9.52,6.61-15.02,8.65c-13.58-0.07-26.53-0.49-38.43-1.23
		c-5.77-2.55-10.96-6.13-15.37-10.5c16.17,1.75,35.56,2.84,56.6,3.05l0.66,0.39l0.7-0.39c2.07,0.03,4.17,0.03,6.26,0.03
		C80.92,90.68,82.43,90.68,83.97,90.68L83.97,90.68z M13.2,85.54c-2.03-2.28-3.89-4.76-5.53-7.35c10.46,3.54,27.58,3.54,47.99-0.42
		l-0.8,3.43C38.78,84.87,24.43,86.28,13.2,85.54L13.2,85.54z M6.58,76.37c-2.27-4.09-4.02-8.51-5.15-13.2
		c6.86-0.45,14.42-1.51,22.47-3.15l-4.31,7.7l2.73,4.9C16.94,74.1,11.65,75.35,6.58,76.37L6.58,76.37z M13.44,16.66
		c0.7-0.81,1.43-1.54,2.21-2.28c6.76,0.28,13.76,0.49,20.96,0.59l0.6,1.05l-1.01,2.63c-2.7-0.18-5.29-0.39-7.84-0.56l-1.33-2.21
		l-4.8,1.22l-0.1,0.42C19.11,17.25,16.24,16.98,13.44,16.66L13.44,16.66z M71.16,76.79l2.17-2.42l-0.88-0.56
		c0.42-0.1,0.84-0.21,1.26-0.35c1.36-0.39,2.73-0.77,4.06-1.19l-0.91,2.24l0.28,0.39C75.15,75.53,73.15,76.19,71.16,76.79
		L71.16,76.79z M42,62.65l-2-1.09l-1.08,0.91v1.71l1.99,0.77l1.99-2.48L42,62.65z"/>
	<path class="st4" d="M51.24,0c28.32,0,51.24,22.92,51.24,51.24c0,22.93-15.05,42.35-35.84,48.86c18.76-7.6,31.99-26.01,31.99-47.5
		c0-28.28-22.92-51.24-51.24-51.24c-5.36,0-10.54,0.84-15.4,2.35C37.94,1.33,44.45,0,51.24,0L51.24,0z"/>
</g>
</svg>
