<?xml version="1.0" encoding="utf-8"?>
<!-- Generator: Adobe Illustrator 24.0.0, SVG Export Plug-In . SVG Version: 6.00 Build 0)  -->
<svg version="1.1" id="Layer_8" xmlns="http://www.w3.org/2000/svg" xmlns:xlink="http://www.w3.org/1999/xlink" x="0px" y="0px"
	 width="500.11px" height="185.22px" viewBox="0 0 500.11 185.22" style="enable-background:new 0 0 500.11 185.22;"
	 xml:space="preserve">
<style type="text/css">
	.st0{fill-rule:evenodd;clip-rule:evenodd;fill:#9966FF;}
	.st1{fill-rule:evenodd;clip-rule:evenodd;fill:#321791;}
	.st2{fill-rule:evenodd;clip-rule:evenodd;fill:#220B78;}
</style>
<g>
	<path class="st0" d="M250.04,0C367.89,0,467.5,78.01,500.11,185.22H0C32.59,78.01,132.2,0,250.04,0L250.04,0z"/>
	<path class="st1" d="M477.79,133.1c9.24,16.35,16.77,33.81,22.33,52.12H11.52C47.74,84.46,144.2,12.35,257.46,12.35
		C350.04,12.35,431.34,60.51,477.79,133.1L477.79,133.1z"/>
	<path class="st2" d="M462.77,130.3c6.9,12.22,12.5,41.27,16.66,54.92H115.22c18.41-51.21,42.84-32.55,92.72-53.66
		c23.27-9.87,63.73-75.18,90.62-75.18c25.79,0,50.99,17.95,73.54,27.06C409.85,98.7,441.11,96.43,462.77,130.3L462.77,130.3z
		 M189.66,41.23c2.14,0,3.89,1.75,3.89,3.96c0,2.17-1.75,3.95-3.89,3.95c-2.17,0-3.92-1.78-3.92-3.95
		C185.74,42.98,187.49,41.23,189.66,41.23L189.66,41.23z M261.87,27.51c2.56,0,4.58,2.07,4.58,4.62c0,2.56-2.03,4.66-4.58,4.66
		c-2.52,0-4.55-2.1-4.55-4.66C257.32,29.58,259.35,27.51,261.87,27.51L261.87,27.51z M243.53,48.33c3.53,0,6.37,2.87,6.37,6.44
		c0,3.53-2.83,6.44-6.37,6.44c-3.5,0-6.34-2.9-6.34-6.44C237.2,51.21,240.03,48.33,243.53,48.33L243.53,48.33z M136.01,110.95
		c5.32,0,9.63,4.38,9.63,9.8c0,5.39-4.3,9.8-9.63,9.8c-5.35,0-9.66-4.41-9.66-9.8C126.35,115.32,130.66,110.95,136.01,110.95
		L136.01,110.95z M87.99,107.63c11.09,0,20.06,9.1,20.06,20.37c0,11.23-8.96,20.37-20.06,20.37c-11.06,0-20.06-9.14-20.06-20.37
		C67.94,116.72,76.93,107.63,87.99,107.63L87.99,107.63z"/>
</g>
</svg>
