<?xml version="1.0" encoding="utf-8"?>
<!-- Generator: Adobe Illustrator 24.0.0, SVG Export Plug-In . SVG Version: 6.00 Build 0)  -->
<svg version="1.1" id="Layer_1" focusable="false" xmlns="http://www.w3.org/2000/svg" xmlns:xlink="http://www.w3.org/1999/xlink"
	 x="0px" y="0px" viewBox="0 0 496 512" style="enable-background:new 0 0 496 512;" xml:space="preserve">
<style type="text/css">
	.st0{fill:#FFFFFF;}
</style>
<path class="st0" d="M248,8C111.03,8,0,119.03,0,256s111.03,248,248,248s248-111.03,248-248S384.97,8,248,8z M330.29,365.6
	c-3.9,3.88-7.99,7.95-11.31,11.28c-2.99,3-5.1,6.7-6.17,10.71c-1.51,5.66-2.73,11.38-4.77,16.87l-17.39,46.85
	c-13.76,3-28,4.69-42.65,4.69v-27.38c1.69-12.62-7.64-36.26-22.63-51.25c-6-6-9.37-14.14-9.37-22.63v-32.01
	c0-11.64-6.27-22.34-16.46-27.97c-14.37-7.95-34.81-19.06-48.81-26.11c-11.48-5.78-22.1-13.14-31.65-21.75l-0.8-0.72
	c-6.83-6.16-12.89-13.13-18.06-20.74c-9.38-13.77-24.66-36.42-34.59-51.14c20.47-45.5,57.36-82.04,103.2-101.89l24.01,12.01
	C203.48,89.74,216,82.01,216,70.11v-11.3c7.99-1.29,16.12-2.11,24.39-2.42l28.3,28.3c6.25,6.25,6.25,16.38,0,22.63L264,112
	l-10.34,10.34c-3.12,3.12-3.12,8.19,0,11.31l4.69,4.69c3.12,3.12,3.12,8.19,0,11.31l-8,8c-1.5,1.5-3.54,2.34-5.66,2.34h-8.99
	c-2.08,0-4.08,0.81-5.58,2.27l-9.92,9.65c-2.5,2.43-3.13,6.19-1.58,9.31l15.59,31.19c2.66,5.32-1.21,11.58-7.15,11.58h-5.64
	c-1.93,0-3.79-0.7-5.24-1.96l-9.28-8.06c-4.27-3.71-10.18-4.88-15.55-3.1l-31.17,10.39c-4.88,1.63-8.17,6.2-8.17,11.34
	c0,4.53,2.56,8.66,6.61,10.69l11.08,5.54c9.41,4.71,19.79,7.16,30.31,7.16s22.59,27.29,32,32h66.75c8.49,0,16.62,3.37,22.63,9.37
	l13.69,13.69c5.72,5.72,8.93,13.48,8.93,21.57C344.01,345,339.07,356.87,330.29,365.6z M417,274.25c-5.79-1.45-10.84-5-14.15-9.97
	l-17.98-26.97c-5.38-8.06-5.38-18.56,0-26.62l19.59-29.38c2.32-3.47,5.5-6.29,9.24-8.15l12.98-6.49C440.2,193.59,448,223.87,448,256
	c0,8.67-0.74,17.16-1.82,25.54L417,274.25z"/>
</svg>
