<?xml version="1.0" encoding="utf-8"?>
<!-- Generator: Adobe Illustrator 24.0.0, SVG Export Plug-In . SVG Version: 6.00 Build 0)  -->
<svg version="1.1" xmlns="http://www.w3.org/2000/svg" xmlns:xlink="http://www.w3.org/1999/xlink" x="0px" y="0px"
	 width="1652.42px" height="902.05px" viewBox="0 0 1652.42 902.05" style="enable-background:new 0 0 1652.42 902.05;"
	 xml:space="preserve">
<style type="text/css">
	.st0{fill-rule:evenodd;clip-rule:evenodd;fill:#331178;}
	.st1{fill-rule:evenodd;clip-rule:evenodd;fill:#3A1580;}
	.st2{fill-rule:evenodd;clip-rule:evenodd;fill:#44158F;}
	.st3{fill-rule:evenodd;clip-rule:evenodd;fill:#521B96;}
	.st4{fill-rule:evenodd;clip-rule:evenodd;fill:#341270;}
	.st5{fill-rule:evenodd;clip-rule:evenodd;fill:#3D1273;}
	.st6{fill-rule:evenodd;clip-rule:evenodd;fill:#491279;}
	.st7{fill-rule:evenodd;clip-rule:evenodd;fill:#55147F;}
	.st8{fill-rule:evenodd;clip-rule:evenodd;fill:#23196E;}
	.st9{fill-rule:evenodd;clip-rule:evenodd;fill:#211F6F;}
	.st10{fill-rule:evenodd;clip-rule:evenodd;fill:#1D2870;}
	.st11{fill-rule:evenodd;clip-rule:evenodd;fill:#1A2E72;}
	.st12{fill-rule:evenodd;clip-rule:evenodd;fill:#241C6D;}
	.st13{fill-rule:evenodd;clip-rule:evenodd;fill:#23236D;}
	.st14{fill-rule:evenodd;clip-rule:evenodd;fill:#222C6D;}
	.st15{fill-rule:evenodd;clip-rule:evenodd;fill:#22356E;}
	.st16{fill-rule:evenodd;clip-rule:evenodd;fill:#25176D;}
	.st17{fill-rule:evenodd;clip-rule:evenodd;fill:#23226D;}
	.st18{fill-rule:evenodd;clip-rule:evenodd;fill:#22296D;}
	.st19{fill-rule:evenodd;clip-rule:evenodd;fill:#6838A4;}
	.st20{fill-rule:evenodd;clip-rule:evenodd;fill:#794DAE;}
	.st21{fill-rule:evenodd;clip-rule:evenodd;fill:#9E7EC5;}
	.st22{fill-rule:evenodd;clip-rule:evenodd;fill:#FFFFFF;}
</style>
<g id="Layer_11">
	<g>
		<g>
			<path class="st0" d="M803.74,754.64c177.28,0,321.82-144.55,321.82-321.83c0-177.24-144.55-321.82-321.82-321.82
				c-177.24,0-321.83,144.58-321.83,321.82C481.91,610.09,626.5,754.64,803.74,754.64L803.74,754.64z"/>
			<path class="st1" d="M803.74,711.27c153.37,0,278.46-125.09,278.46-278.46S957.11,154.35,803.74,154.35
				S525.28,279.44,525.28,432.81S650.37,711.27,803.74,711.27L803.74,711.27z"/>
			<path class="st2" d="M803.74,644c116.3,0,211.19-94.89,211.19-211.19s-94.88-211.19-211.19-211.19s-211.19,94.89-211.19,211.19
				S687.44,644,803.74,644L803.74,644z"/>
			<path class="st3" d="M803.74,577.29c79.59,0,144.48-64.89,144.48-144.48c0-79.55-64.89-144.48-144.48-144.48
				c-79.56,0-144.48,64.93-144.48,144.48C659.26,512.4,724.19,577.29,803.74,577.29L803.74,577.29z"/>
		</g>
		<g>
			<path class="st4" d="M144.59,241.89c66.61,0,120.92-54.36,120.92-120.96S211.19,0,144.59,0S23.63,54.32,23.63,120.93
				S77.98,241.89,144.59,241.89L144.59,241.89z"/>
			<path class="st5" d="M144.59,225.58c57.61,0,104.61-47.01,104.61-104.65c0-57.61-47.01-104.62-104.61-104.62
				c-57.65,0-104.65,47-104.65,104.62C39.93,178.57,86.94,225.58,144.59,225.58L144.59,225.58z"/>
			<path class="st6" d="M144.59,200.3c43.68,0,79.35-35.66,79.35-79.38c0-43.68-35.67-79.35-79.35-79.35
				c-43.71,0-79.38,35.67-79.38,79.35C65.2,164.64,100.87,200.3,144.59,200.3L144.59,200.3z"/>
			<path class="st7" d="M144.59,175.24c29.89,0,54.29-24.4,54.29-54.32c0-29.89-24.4-54.29-54.29-54.29
				c-29.93,0-54.32,24.4-54.32,54.29C90.26,150.85,114.66,175.24,144.59,175.24L144.59,175.24z"/>
		</g>
		<g>
			<path class="st8" d="M1473.29,902.05c98.66,0,179.13-80.46,179.13-179.13c0-98.7-80.47-179.16-179.13-179.16
				c-98.7,0-179.17,80.46-179.17,179.16C1294.13,821.59,1374.59,902.05,1473.29,902.05L1473.29,902.05z"/>
			<path class="st9" d="M1473.29,877.9c85.36,0,154.98-69.61,154.98-154.98c0-85.4-69.62-155.02-154.98-155.02
				c-85.4,0-155.01,69.62-155.01,155.02C1318.28,808.29,1387.89,877.9,1473.29,877.9L1473.29,877.9z"/>
			<path class="st10" d="M1473.29,840.46c64.75,0,117.53-52.78,117.53-117.53s-52.78-117.57-117.53-117.57
				s-117.56,52.82-117.56,117.57S1408.54,840.46,1473.29,840.46L1473.29,840.46z"/>
			<path class="st11" d="M1473.29,803.32c44.28,0,80.4-36.12,80.4-80.4c0-44.31-36.12-80.43-80.4-80.43
				c-44.31,0-80.43,36.12-80.43,80.43C1392.86,767.2,1428.98,803.32,1473.29,803.32L1473.29,803.32z"/>
		</g>
		<g>
			<path class="st4" d="M1386.7,193.83c25.17,0,45.71-20.54,45.71-45.71c0-25.2-20.54-45.74-45.71-45.74
				c-25.16,0-45.71,20.54-45.71,45.74C1340.99,173.29,1361.54,193.83,1386.7,193.83L1386.7,193.83z"/>
			<path class="st5" d="M1386.7,187.67c21.77,0,39.55-17.78,39.55-39.55c0-21.8-17.78-39.58-39.55-39.58s-39.55,17.78-39.55,39.58
				C1347.15,169.89,1364.93,187.67,1386.7,187.67L1386.7,187.67z"/>
			<path class="st6" d="M1386.7,178.11c16.52,0,29.99-13.47,29.99-29.99s-13.47-29.99-29.99-29.99s-29.99,13.47-29.99,29.99
				S1370.18,178.11,1386.7,178.11L1386.7,178.11z"/>
			<path class="st7" d="M1386.7,168.63c11.31,0,20.51-9.21,20.51-20.51c0-11.3-9.21-20.54-20.51-20.54s-20.51,9.24-20.51,20.54
				C1366.19,159.43,1375.4,168.63,1386.7,168.63L1386.7,168.63z"/>
		</g>
		<g>
			<path class="st12" d="M88.76,882.17c48.86,0,88.72-39.83,88.72-88.72c0-48.86-39.86-88.73-88.72-88.73
				C39.86,704.72,0,744.59,0,793.45C0,842.34,39.87,882.17,88.76,882.17L88.76,882.17z"/>
			<path class="st13" d="M88.76,870.24c42.28,0,76.75-34.51,76.75-76.79c0-42.28-34.47-76.76-76.75-76.76
				c-42.32,0-76.79,34.47-76.79,76.76C11.97,835.73,46.45,870.24,88.76,870.24L88.76,870.24z"/>
			<path class="st14" d="M88.76,851.69c32.06,0,58.21-26.15,58.21-58.24c0-32.06-26.15-58.21-58.21-58.21
				c-32.1,0-58.24,26.15-58.24,58.21C30.52,825.54,56.67,851.69,88.76,851.69L88.76,851.69z"/>
			<path class="st15" d="M88.76,833.28c21.91,0,39.83-17.88,39.83-39.83s-17.92-39.83-39.83-39.83c-21.95,0-39.83,17.89-39.83,39.83
				S66.81,833.28,88.76,833.28L88.76,833.28z"/>
		</g>
		<g>
			<path class="st16" d="M257.25,419.83c19.04,0,34.58-15.54,34.58-34.58s-15.54-34.54-34.58-34.54c-19.01,0-34.55,15.5-34.55,34.54
				S238.25,419.83,257.25,419.83L257.25,419.83z"/>
			<path class="st12" d="M257.25,415.17c16.48,0,29.92-13.44,29.92-29.92c0-16.45-13.44-29.89-29.92-29.89
				c-16.45,0-29.89,13.44-29.89,29.89C227.36,401.73,240.8,415.17,257.25,415.17L257.25,415.17z"/>
			<path class="st17" d="M257.25,407.92c12.49,0,22.68-10.18,22.68-22.68s-10.18-22.68-22.68-22.68
				c-12.46,0-22.68,10.18-22.68,22.68S244.79,407.92,257.25,407.92L257.25,407.92z"/>
			<path class="st18" d="M257.25,400.79c8.57,0,15.54-7,15.54-15.54s-6.96-15.51-15.54-15.51c-8.54,0-15.51,6.96-15.51,15.51
				S248.71,400.79,257.25,400.79L257.25,400.79z"/>
		</g>
	</g>
</g>
<g id="Layer_6">
	<g>
		<path class="st19" d="M803.74,538.23c58.07,0,105.42-47.35,105.42-105.42s-47.35-105.42-105.42-105.42
			s-105.42,47.36-105.42,105.42S745.67,538.23,803.74,538.23L803.74,538.23z"/>
		<path class="st20" d="M803.74,515.69c45.64,0,82.88-37.24,82.88-82.88s-37.24-82.88-82.88-82.88s-82.88,37.24-82.88,82.88
			S758.1,515.69,803.74,515.69L803.74,515.69z"/>
		<path class="st21" d="M803.74,497.49c35.63,0,64.68-29.05,64.68-64.68s-29.05-64.68-64.68-64.68s-64.68,29.05-64.68,64.68
			S768.11,497.49,803.74,497.49L803.74,497.49z"/>
		<path class="st22" d="M803.74,488.78c30.84,0,55.96-25.13,55.96-55.97c0-30.8-25.13-55.96-55.96-55.96
			c-30.8,0-55.97,25.17-55.97,55.96C747.77,463.65,772.94,488.78,803.74,488.78L803.74,488.78z"/>
	</g>
</g>
</svg>
