<?xml version="1.0" encoding="utf-8"?>
<!-- Generator: Adobe Illustrator 24.0.0, SVG Export Plug-In . SVG Version: 6.00 Build 0)  -->
<svg version="1.1" id="Layer_1" xmlns="http://www.w3.org/2000/svg" xmlns:xlink="http://www.w3.org/1999/xlink" x="0px" y="0px"
	 viewBox="0 0 1080 1080" style="enable-background:new 0 0 1080 1080;" xml:space="preserve">
<style type="text/css">
	.st0{fill:#FFFFFF;}
</style>
<g>
	<g>
		<path class="st0" d="M439,641.08c0.56-0.01,1.12-0.03,1.68-0.03c66.18,0,132.37,0,198.55,0c0.55,0,1.11,0,1.82,0
			c0-0.62,0-1.16,0-1.7c0-66.22,0-132.45,0-198.67c0-0.56,0.02-1.12,0.03-1.68c0.08,0.04,0.23,0.08,0.23,0.12
			c0.02,0.32,0.01,0.64,0.01,0.96c0,67.08,0,134.16,0,201.24c-67.08,0-134.16,0-201.24-0.01C439.72,641.31,439.36,641.16,439,641.08
			z"/>
		<path class="st0" d="M544.06,624.48c6.87-6.74,13.74-13.48,20.59-20.19c2.85,1.75,5.58,3.52,8.41,5.13
			c3.45,1.97,6.97,3.82,10.49,5.66c0.45,0.24,1.22,0.31,1.64,0.09c2.84-1.5,5.62-3.1,8.68-4.8c-1.63-0.9-3.01-1.63-4.37-2.41
			c-5.72-3.29-11.41-6.62-17.14-9.89c-1.03-0.59-1.13-1.11-0.53-2.16c3.27-5.68,5.73-11.7,6.82-18.2c0.43-2.58,0.66-5.21,0.83-7.82
			c0.17-2.78,0.35-5.59,0.19-8.37c-0.36-6.41-2.08-12.51-4.58-18.4c-4.18-9.86-10.74-17.73-19.95-23.26
			c-3.72-2.24-7.79-3.77-11.99-4.86c-3.75-0.97-6.37-3.4-8.92-6.11c-3.39-3.59-6.87-7.11-10.46-10.49
			c-2.52-2.37-5.22-4.56-7.97-6.67c-3.03-2.33-6.22-4.48-10.15-5.02c-5.01-0.7-9.75,0.17-14.13,2.75c-2.78,1.64-5.54,3.32-7.5,6
			c-0.35,0.47-0.64,1.01-0.83,1.57c-0.43,1.26-0.06,2.4,1.17,2.89c1.23,0.49,2.57,0.82,3.89,0.95c2.89,0.29,5.81,0.26,8.68,0.66
			c3.55,0.49,6.44,2.48,8.95,4.91c2.86,2.77,5.66,5.63,8.23,8.67c1.05,1.24,1.57,3.01,2.06,4.62c1.9,6.19,5.26,11.53,9.16,16.61
			c2.59,3.37,5.16,6.77,7.59,10.26c1.48,2.13,2.5,4.55,2.57,7.21c0.06,2.19-0.5,4.31-1.72,6.1c-1.3,1.9-2.86,3.61-4.3,5.41
			c-0.47,0.59-0.86,0.49-1.38,0.03c-5.63-5-11.37-9.88-16.89-14.99c-6.09-5.64-12.14-11.33-17.92-17.28
			c-8.11-8.34-15.93-16.96-22.75-26.42c-1.37-1.9-2.8-3.76-4.21-5.64c-0.21-0.28-0.47-0.52-0.94-1.03
			c-1.02,2.62-1.97,5.03-2.91,7.45c-0.03,0.07,0,0.17-0.04,0.23c-1.44,2.36-0.26,4.06,1.27,5.86c4.12,4.86,8.07,9.86,12.19,14.72
			c2.89,3.4,5.89,6.72,8.95,9.96c4.33,4.59,8.64,9.2,13.17,13.57c5.39,5.2,11,10.17,16.54,15.21c2.09,1.9,4.24,3.72,6.56,5.74
			c-11.19,10.25-22.27,20.39-33.5,30.67c-2.59-2.65-5.04-5.05-7.35-7.57c-3.35-3.64-6.48-7.45-9.06-11.68
			c-5.73-9.39-9.99-19.38-12.17-30.21c-1.13-5.6-1.68-11.26-1.7-16.96c-0.03-8.63,1.18-17.11,3.54-25.43
			c0.13-0.44,0.01-1.1-0.25-1.48c-5.04-7.4-9.94-14.87-13.72-23.03c-2.05-4.42-3.84-8.92-4.37-13.78c-0.24-2.26-0.17-4.66,0.32-6.87
			c1.07-4.91,4.64-7.26,9.33-8.19c5.13-1.02,10.13-0.08,15.11,1.05c7.24,1.64,14.09,4.39,20.79,7.49c2.02,0.93,3.35,0.88,5.18-0.49
			c8.22-6.15,17.32-10.62,27.17-13.5c5.61-1.64,11.32-2.72,17.16-3.22c4.7-0.41,9.4-0.56,14.09-0.16c7.3,0.62,14.44,2.03,21.41,4.37
			c7.85,2.64,15.2,6.27,21.99,10.98c10.93,7.57,19.84,17.04,26.36,28.69c4.52,8.06,7.78,16.59,9.74,25.61
			c1.64,7.56,2.12,15.23,1.69,22.93c-0.6,10.84-3.17,21.25-7.65,31.15c-0.83,1.84-1.71,3.67-2.67,5.45
			c-0.35,0.65-0.25,1.05,0.1,1.61c2.58,4.15,5.27,8.24,7.66,12.49c3.26,5.79,5.97,11.85,7.27,18.43c0.56,2.83,0.71,5.69-0.07,8.52
			c-1.47,5.31-5.2,7.6-10.19,8.27c-8.36,1.12-16.17-1.26-23.82-4.03c-6.04-2.19-11.87-4.95-17.76-7.54
			c-0.97-0.43-1.75-0.43-2.71-0.06c-3.43,1.36-6.85,2.74-10.33,3.95c-5.03,1.75-10.18,3.08-15.49,3.59
			c-4.3,0.41-8.63,0.58-12.95,0.85C544.21,624.63,544.18,624.58,544.06,624.48z M576.31,526.16c-0.09,1.73,0.62,3.39,1.78,4.86
			c1.48,1.87,3.01,3.7,4.58,5.51c3.05,3.52,8.7,4.18,12.17,0.95c1.72-1.6,3.65-2.96,5.42-4.49c5.14-4.46,10.29-8.92,15.37-13.46
			c2.72-2.43,3.36-7.32,1.16-10.25c-2.02-2.69-4.31-5.22-6.7-7.6c-2-1.99-7.18-2.11-9.32-0.42c-3.5,2.76-6.95,5.58-10.38,8.43
			c-3.21,2.67-6.38,5.4-9.54,8.13C578.35,519.97,576.27,522.38,576.31,526.16z M573.38,518.14c2.18,0.04,4.13-0.52,5.84-1.97
			c2.7-2.28,5.51-4.44,8.18-6.76c4.33-3.76,8.63-7.55,12.84-11.43c2.53-2.33,3.13-7.04,1.16-9.87c-1.69-2.42-3.7-4.64-5.72-6.82
			c-2.33-2.5-5.36-3.17-8.52-2.2c-1.57,0.48-3,1.61-4.31,2.66c-3.51,2.81-6.95,5.7-10.35,8.65c-3.25,2.82-6.51,5.64-9.57,8.65
			c-2.32,2.29-2.81,5.26-1.59,8.26c1.53,3.78,4.4,6.57,7.43,9.2C570.1,517.67,571.62,518.22,573.38,518.14z M594.26,610.45
			c0.5,0.29,0.83,0.52,1.18,0.67c4.72,1.97,9.37,4.13,14.19,5.83c4.76,1.68,9.69,2.87,14.84,2.1c3-0.45,5.15-2.01,6.08-4.98
			c0.84-2.69,0.36-5.36-0.37-7.98c-1.54-5.53-4.35-10.46-7.36-15.29c-1.19-1.91-2.49-3.76-3.89-5.86
			C612.37,595.26,603.78,603.24,594.26,610.45z M608.65,532c-0.03-0.1-0.05-0.2-0.08-0.29c-1.34,0.43-2.93,0.54-3.97,1.35
			c-3.88,3.04-7.69,6.2-11.32,9.54c-3.27,3.02-3.63,7.57-1.13,11.04c1.14,1.58,2.34,3.11,3.6,4.59c3.81,4.48,9.08,4.82,13.25,1.24
			c3.36-2.87,6.7-5.77,9.92-8.79c2.73-2.55,3.13-7.52,0.89-10.53c-1.35-1.81-2.87-3.5-4.42-5.15
			C613.59,533.08,611.43,531.81,608.65,532z M485.27,472.58c-2.5-1-4.72-1.86-6.91-2.77c-5.24-2.17-10.66-3.38-16.35-3.27
			c-4.43,0.08-7.45,2.51-7.7,6.23c-0.17,2.56,0.1,5.07,0.86,7.54c2.01,6.54,5.57,12.27,9.18,17.99c0.31,0.48,0.64,0.95,1.14,1.68
			C470.45,489.56,477.17,480.74,485.27,472.58z"/>
	</g>
</g>
</svg>
