<?xml version="1.0" encoding="utf-8"?>
<!-- Generator: Adobe Illustrator 24.0.0, SVG Export Plug-In . SVG Version: 6.00 Build 0)  -->
<svg version="1.1" id="Layer_7" xmlns="http://www.w3.org/2000/svg" xmlns:xlink="http://www.w3.org/1999/xlink" x="0px" y="0px"
	 width="30.59px" height="30.58px" viewBox="0 0 30.59 30.58" style="enable-background:new 0 0 30.59 30.58;" xml:space="preserve"
	>
<style type="text/css">
	.st0{fill-rule:evenodd;clip-rule:evenodd;fill:#7C1370;}
	.st1{fill-rule:evenodd;clip-rule:evenodd;fill:#BE2385;}
</style>
<g>
	<path class="st0" d="M15.29,30.58c8.43,0,15.29-6.86,15.29-15.29S23.72,0,15.29,0S0,6.86,0,15.29C0,23.73,6.86,30.58,15.29,30.58
		L15.29,30.58z"/>
	<path class="st1" d="M23.7,2.48c4.16,2.76,6.89,7.46,6.89,12.81c0,8.47-6.86,15.29-15.29,15.29c-0.63,0-1.23-0.04-1.82-0.1
		c-4.16-2.73-6.93-7.46-6.93-12.81c0-8.43,6.86-15.29,15.29-15.29C22.47,2.38,23.1,2.41,23.7,2.48L23.7,2.48z"/>
</g>
</svg>
