<?xml version="1.0" encoding="utf-8"?>
<!-- Generator: Adobe Illustrator 24.0.0, SVG Export Plug-In . SVG Version: 6.00 Build 0)  -->
<svg version="1.1" id="Layer_9" xmlns="http://www.w3.org/2000/svg" xmlns:xlink="http://www.w3.org/1999/xlink" x="0px" y="0px"
	 width="140.75px" height="140.74px" viewBox="0 0 140.75 140.74" style="enable-background:new 0 0 140.75 140.74;"
	 xml:space="preserve">
<style type="text/css">
	.st0{fill-rule:evenodd;clip-rule:evenodd;fill:#FF6666;}
	.st1{fill-rule:evenodd;clip-rule:evenodd;fill:#C43F57;}
	.st2{fill-rule:evenodd;clip-rule:evenodd;fill:#DF99FF;}
</style>
<g>
	<path class="st0" d="M70.36,140.74c38.78,0,70.39-31.6,70.39-70.39C140.75,31.61,109.14,0,70.36,0C31.62,0,0.01,31.6,0.01,70.35
		C0.01,109.13,31.62,140.74,70.36,140.74L70.36,140.74z"/>
	<path class="st1" d="M70.36,0c38.89,0,70.39,31.5,70.39,70.35c0,38.89-31.5,70.39-70.39,70.39c-7.07-1.92-21.98-3.08-19.6-9.73
		c1.22-3.29,10.6,1.33,19.91,2.07c12.39,0.95,25.45-1.61,26.88-5.6c2.14-5.98-12.78-1.99-29.96-2.9
		c-20.37-1.12-43.82-7.11-43.22-16.55c0.46-7.21,21.03,2.07,41.23,3.88c20.65,1.86,40.95-3.78,41.96-15.75
		c1.05-12.18-18.83-9.1-41.82-9.63c-21.49-0.52-48.76-7.84-49.7-20.79c-0.98-14,20.96-8.15,41.83-8.57
		c21-0.42,40.88-7.11,37.2-21.07c-2.03-7.63-14.49-2.8-29.96-2.1c-15.65,0.73-34.27-2.63-35.49-8.99C27.31,12.91,55.55,1.54,70.36,0
		L70.36,0z"/>
	<path class="st2" d="M70.36,0c2.31,0,4.59,0.1,6.83,0.31c-0.53,0-1.05-0.03-1.58-0.03c-38.85,0-70.39,31.53-70.39,70.38
		c0,36.58,27.93,66.64,63.59,70.07C30.66,139.89,0,108.7,0,70.34C0.01,31.5,31.51,0,70.36,0L70.36,0z"/>
</g>
</svg>
