<?xml version="1.0" encoding="utf-8"?>
<!-- Generator: Adobe Illustrator 24.0.0, SVG Export Plug-In . SVG Version: 6.00 Build 0)  -->
<svg version="1.1" id="Layer_5" xmlns="http://www.w3.org/2000/svg" xmlns:xlink="http://www.w3.org/1999/xlink" x="0px" y="0px"
	 width="56.18px" height="56.17px" viewBox="0 0 56.18 56.17" style="enable-background:new 0 0 56.18 56.17;" xml:space="preserve"
	>
<style type="text/css">
	.st0{fill-rule:evenodd;clip-rule:evenodd;fill:#336666;}
	.st1{fill-rule:evenodd;clip-rule:evenodd;fill:#669999;}
</style>
<g>
	<path class="st0" d="M28.11,56.17c15.47,0,28.07-12.6,28.07-28.07S43.58,0,28.11,0S0,12.63,0,28.1S12.63,56.17,28.11,56.17
		L28.11,56.17z"/>
	<path class="st1" d="M44.35,51.02c-4.59,3.25-10.18,5.15-16.24,5.15C12.6,56.17,0,43.61,0,28.1c0-4.34,0.98-8.43,2.77-12.11
		c4.59-3.26,10.19-5.18,16.24-5.18c15.51,0,28.07,12.56,28.07,28.1C47.08,43.25,46.1,47.35,44.35,51.02L44.35,51.02z M35.28,9.51
		c1.05,0,1.92,0.84,1.92,1.93c0,1.05-0.88,1.93-1.92,1.93c-1.05,0-1.93-0.88-1.93-1.93C33.36,10.35,34.23,9.51,35.28,9.51
		L35.28,9.51z M47,17.56c0.42,0,0.73,0.35,0.73,0.74s-0.31,0.74-0.73,0.74c-0.39,0-0.73-0.35-0.73-0.74S46.62,17.56,47,17.56
		L47,17.56z"/>
	<path class="st0" d="M18.31,14.9c1.65,0,3.01,1.33,3.01,3.01s-1.36,3.01-3.01,3.01c-1.68,0-3.01-1.33-3.01-3.01
		S16.62,14.9,18.31,14.9L18.31,14.9z M27.02,38.42c0.38,0,0.73,0.31,0.73,0.7c0,0.42-0.35,0.74-0.73,0.74
		c-0.39,0-0.74-0.31-0.74-0.74C26.29,38.73,26.63,38.42,27.02,38.42L27.02,38.42z M31.96,20.04c0.42,0,0.73,0.32,0.73,0.7
		c0,0.42-0.31,0.73-0.73,0.73c-0.38,0-0.73-0.31-0.73-0.73C31.22,20.36,31.57,20.04,31.96,20.04L31.96,20.04z M40.25,29.57
		c0.42,0,0.73,0.35,0.73,0.74s-0.31,0.74-0.73,0.74c-0.39,0-0.7-0.35-0.7-0.74S39.86,29.57,40.25,29.57L40.25,29.57z M36.05,43.32
		c0.8,0,1.44,0.63,1.44,1.44c0,0.8-0.63,1.47-1.44,1.47c-0.81,0-1.43-0.67-1.43-1.47C34.62,43.95,35.24,43.32,36.05,43.32
		L36.05,43.32z M23.52,50.74c0.81,0,1.47,0.63,1.47,1.43c0,0.8-0.66,1.47-1.47,1.47c-0.77,0-1.43-0.67-1.43-1.47
		C22.09,51.37,22.75,50.74,23.52,50.74L23.52,50.74z M42.84,46.23c1.05,0,1.93,0.88,1.93,1.92c0,1.09-0.88,1.93-1.93,1.93
		s-1.92-0.84-1.92-1.93C40.92,47.1,41.79,46.23,42.84,46.23L42.84,46.23z M36.37,24.32c1.05,0,1.93,0.88,1.93,1.93
		s-0.88,1.93-1.93,1.93c-1.08,0-1.92-0.88-1.92-1.93S35.28,24.32,36.37,24.32L36.37,24.32z M9.94,26.03c1.08,0,1.92,0.88,1.92,1.93
		s-0.84,1.93-1.92,1.93c-1.05,0-1.93-0.88-1.93-1.93S8.89,26.03,9.94,26.03L9.94,26.03z"/>
</g>
</svg>
