<?xml version="1.0" encoding="utf-8"?>
<!-- Generator: Adobe Illustrator 24.0.0, SVG Export Plug-In . SVG Version: 6.00 Build 0)  -->
<svg version="1.1" id="Layer_1" xmlns="http://www.w3.org/2000/svg" xmlns:xlink="http://www.w3.org/1999/xlink" x="0px" y="0px"
	 width="512px" height="512px" viewBox="0 0 512 512" style="enable-background:new 0 0 512 512;" xml:space="preserve">
<style type="text/css">
	.st0{fill:#FFB819;}
</style>
<g id="mdx">
</g>
<g id="XMLID_1_">
	<path id="XMLID_15_" class="st0" d="M235.29,190.15c9.44,0,17.23-4.91,18.28-11.25l9.31-105.45c0-10.45-12.2-19.01-27.56-19.01
		c-15.33,0-27.53,8.55-27.53,19.01l9.31,105.45c1.01,6.34,8.81,11.25,18.21,11.25H235.29z"/>
	<path id="XMLID_14_" class="st0" d="M178.29,223.1c4.75-8.17,4.37-17.36-0.6-21.44l-86.7-60.79c-9-5.23-22.52,1.08-30.19,14.35
		c-7.7,13.3-6.34,28.13,2.66,33.36l95.98,44.7c6.02,2.22,14.16-2.06,18.88-10.23L178.29,223.1z"/>
	<path id="XMLID_13_" class="st0" d="M292.34,223.04c4.72,8.17,12.86,12.45,18.88,10.2l95.98-44.66
		c9.03-5.23,10.33-20.05,2.69-33.36c-7.7-13.3-21.22-19.58-30.22-14.35l-86.7,60.79c-4.94,4.09-5.32,13.27-0.6,21.45L292.34,223.04z
		"/>
	<path id="XMLID_12_" class="st0" d="M235.29,321.88c9.44,0,17.23,4.88,18.28,11.21l9.31,105.45c0,10.45-12.2,19.01-27.56,19.01
		c-15.33,0-27.53-8.55-27.53-19.01l9.31-105.45c1.01-6.34,8.81-11.21,18.21-11.21H235.29z"/>
	<path id="XMLID_11_" class="st0" d="M292.34,288.95c4.72-8.17,12.86-12.42,18.88-10.17l95.98,44.63
		c9.03,5.23,10.33,20.08,2.69,33.39c-7.7,13.24-21.22,19.54-30.22,14.35l-86.7-60.76c-4.94-4.12-5.32-13.3-0.6-21.48L292.34,288.95z
		"/>
	<path id="XMLID_10_" class="st0" d="M178.29,288.93c4.75,8.17,4.37,17.36-0.6,21.48l-86.7,60.72c-9,5.23-22.52-1.08-30.19-14.35
		c-7.7-13.27-6.34-28.13,2.66-33.36l95.98-44.66c6.02-2.25,14.16,2,18.88,10.2L178.29,288.93z"/>
</g>
</svg>
